<svg xmlns="http://www.w3.org/2000/svg" viewBox="0 0 120 120" role="img" aria-label="Rawnak Agency mark">
  <defs>
    <radialGradient id="g" cx="50%" cy="46%" r="58%">
      <stop offset="0" stop-color="#ffffff"/>
      <stop offset=".45" stop-color="#dfe4ff"/>
      <stop offset="1" stop-color="#7080c9"/>
    </radialGradient>
    <linearGradient id="s" x1="18" x2="102" y1="18" y2="102">
      <stop stop-color="#eef1ff"/>
      <stop offset=".45" stop-color="#8390d9"/>
      <stop offset="1" stop-color="#25315c"/>
    </linearGradient>
    <filter id="soft" x="-20%" y="-20%" width="140%" height="140%">
      <feDropShadow dx="0" dy="8" stdDeviation="5" flood-color="#6570c8" flood-opacity=".22"/>
    </filter>
  </defs>
  <circle cx="60" cy="60" r="52" fill="rgba(255,255,255,.35)" stroke="rgba(255,255,255,.9)" stroke-width="2"/>
  <g filter="url(#soft)" fill="url(#g)" stroke="url(#s)" stroke-width="1.8">
    <ellipse cx="60" cy="27" rx="12" ry="28"/>
    <ellipse cx="60" cy="93" rx="12" ry="28"/>
    <ellipse cx="27" cy="60" rx="28" ry="12"/>
    <ellipse cx="93" cy="60" rx="28" ry="12"/>
    <ellipse cx="36.7" cy="36.7" rx="11" ry="26" transform="rotate(-45 36.7 36.7)"/>
    <ellipse cx="83.3" cy="83.3" rx="11" ry="26" transform="rotate(-45 83.3 83.3)"/>
    <ellipse cx="83.3" cy="36.7" rx="11" ry="26" transform="rotate(45 83.3 36.7)"/>
    <ellipse cx="36.7" cy="83.3" rx="11" ry="26" transform="rotate(45 36.7 83.3)"/>
  </g>
  <g fill="none" stroke="#6674c9" stroke-width="2" opacity=".85">
    <path d="M26 38c-7-4-10-10-8-17 7 2 13 7 17 15"/>
    <path d="M94 38c7-4 10-10 8-17-7 2-13 7-17 15"/>
    <path d="M26 82c-7 4-10 10-8 17 7-2 13-7 17-15"/>
    <path d="M94 82c7 4 10 10 8 17-7-2-13-7-17-15"/>
  </g>
  <circle cx="60" cy="60" r="9" fill="#f8f9ff" stroke="#6570c8" stroke-width="2"/>
</svg>
